<svg width="14" height="15" viewBox="0 0 14 15" fill="none" xmlns="http://www.w3.org/2000/svg">
<mask id="mask0_5276_208" style="mask-type:alpha" maskUnits="userSpaceOnUse" x="1" y="1" width="11" height="13">
<path fill-rule="evenodd" clip-rule="evenodd" d="M8.37324 1.57946C8.01818 1.22437 7.53946 1.02001 7.03728 1.01883C6.8674 1.01843 6.68844 1.01843 6.49964 1.01843C4.68465 1.01843 3.77716 1.01843 3.08393 1.37165C2.47415 1.68235 1.97837 2.17813 1.66767 2.78791C1.31445 3.48114 1.31445 4.38863 1.31445 6.20362V8.79621C1.31445 10.6112 1.31445 11.5187 1.66767 12.212C1.97837 12.8217 2.47415 13.3175 3.08393 13.6282C3.77716 13.9814 4.68465 13.9814 6.49964 13.9814C8.31465 13.9814 9.22212 13.9814 9.91531 13.6282C10.5252 13.3175 11.0209 12.8217 11.3316 12.212C11.6848 11.5187 11.6848 10.6112 11.6848 8.79621V6.20362C11.6848 6.01484 11.6848 5.83588 11.6844 5.66597C11.6833 5.16379 11.4789 4.68508 11.1238 4.33L8.37324 1.57946Z" fill="white"/>
</mask>
<g mask="url(#mask0_5276_208)">
<path d="M7.04102 -0.203735L7.29102 -0.202759L7.29004 -0.19104C7.94589 -0.136314 8.55895 0.127043 9.05176 0.547241L9.06152 0.538452L9.23828 0.71521L11.9883 3.46619L12.165 3.64294L12.1562 3.65076C12.5768 4.14365 12.8407 4.75731 12.8955 5.41345H12.9062L12.9082 5.91345H12.9072V9.04626H12.9062C12.9061 9.60872 12.9056 10.108 12.8877 10.5472L12.8594 11.0238C12.8159 11.5555 12.7277 12.0594 12.5254 12.5394L12.5342 12.5443L12.3076 12.9896L12.2988 12.9847C11.9102 13.6523 11.356 14.2065 10.6885 14.5951L10.6934 14.6039L10.248 14.8304L10.2432 14.8217C9.90235 14.9653 9.54989 15.0518 9.18359 15.1049L8.72852 15.1556C8.1842 15.2001 7.52727 15.2013 6.75 15.2015V15.2035H6.25V15.2015C5.68756 15.2014 5.18828 15.2018 4.74902 15.184L4.27246 15.1556C3.74051 15.1122 3.23618 15.0243 2.75586 14.8217L2.75195 14.8304L2.30664 14.6039L2.31055 14.5941C1.64346 14.2055 1.08856 13.652 0.700195 12.9847L0.692383 12.9896L0.46582 12.5443L0.473633 12.5394C0.330078 12.1987 0.244453 11.846 0.191406 11.4799L0.140625 11.0238C0.0961942 10.4796 0.0940064 9.82322 0.09375 9.04626H0.0927734V5.95349H0.09375C0.0940069 5.17654 0.0961857 4.52012 0.140625 3.97595L0.191406 3.52087C0.244496 3.15411 0.329729 2.80061 0.473633 2.45935L0.46582 2.45544L0.692383 2.01013L0.701172 2.01404C1.0896 1.34716 1.64367 0.793091 2.31055 0.404663L2.30664 0.395874L2.75195 0.169312L2.75586 0.177124C3.23606 -0.0253701 3.74067 -0.112435 4.27246 -0.155884L4.74902 -0.184204C5.18827 -0.202081 5.68755 -0.201596 6.25 -0.201782V-0.203735H7.04102ZM6.5 2.2406C5.80399 2.2406 5.28 2.24138 4.85938 2.25818L4.47168 2.28064C4.1232 2.30911 3.91108 2.35453 3.76562 2.40662L3.63965 2.46033C3.30738 2.62962 3.0289 2.88738 2.83496 3.20349L2.75684 3.34314C2.70126 3.45232 2.64985 3.60435 2.61133 3.86951L2.57715 4.17517C2.55761 4.41457 2.5481 4.68973 2.54297 5.02087L2.53711 6.20349V8.79626L2.54297 9.97888C2.5481 10.3103 2.55758 10.586 2.57715 10.8256L2.61133 11.1312C2.63699 11.3076 2.66846 11.4338 2.70312 11.5306L2.75684 11.6576L2.83496 11.7963C3.00115 12.0672 3.22911 12.2951 3.5 12.4613L3.63965 12.5394L3.76562 12.5931C3.91108 12.6452 4.12314 12.6906 4.47168 12.7191H4.4707C4.94975 12.7582 5.57234 12.7592 6.5 12.7592C7.42776 12.7592 8.05023 12.7582 8.5293 12.7191L8.83496 12.6859C9.10014 12.6473 9.25218 12.595 9.36133 12.5394C9.74091 12.346 10.0497 12.0371 10.2432 11.6576C10.3173 11.5121 10.3848 11.2902 10.4229 10.8256L10.4463 10.4369C10.4519 10.2966 10.4554 10.1447 10.458 9.97888L10.4629 8.79626V5.66931L10.4492 5.54138C10.4319 5.45717 10.3981 5.37501 10.3477 5.30017L10.2598 5.1947L10.083 5.01794V5.01697L7.50977 2.44373C7.41003 2.34401 7.28843 2.28016 7.16211 2.25427L7.03516 2.24158C6.86692 2.24118 6.68906 2.2406 6.5 2.2406Z" fill="white" stroke="white" stroke-width="0.5"/>
<path d="M7.47217 1.34265V3.2871C7.47217 4.36098 8.3427 5.23154 9.41661 5.23154H11.037" stroke="white" stroke-width="1.55556"/>
</g>
</svg>
