<svg width="34" height="32" viewBox="0 0 34 32" fill="none" xmlns="http://www.w3.org/2000/svg">
<mask id="mask0_5276_186" style="mask-type:luminance" maskUnits="userSpaceOnUse" x="0" y="2" width="34" height="27">
<path d="M33.913 2.62012H0L0 28.8754H33.913V2.62012Z" fill="white"/>
</mask>
<g mask="url(#mask0_5276_186)">
<path d="M16.2913 2.81629C16.962 2.80174 17.7029 2.73033 18.227 3.25069C18.7385 3.75835 18.7258 4.45491 18.7142 5.12535C18.3722 5.75933 18.1238 6.03404 17.4871 6.3701C17.0638 6.38267 16.6371 6.36928 16.2138 6.36668C15.7208 6.05062 15.3618 5.62136 15.1095 5.09177C15.1022 4.66155 15.0803 4.24888 15.2269 3.83621C15.4164 3.30362 15.8105 3.04085 16.2913 2.81629Z" fill="#302D2D"/>
<path d="M18.7818 12.7654C20.5826 12.8956 21.1828 14.5318 21.9022 14.6568C22.0333 14.597 22.0961 14.5774 22.1521 14.4283C22.4536 13.627 21.2573 11.0053 20.7395 10.3516C20.1545 9.61242 19.2567 9.2233 18.8909 8.29593C18.6308 7.63674 18.5509 6.5867 18.8602 5.9358C18.9357 5.77714 19.0132 5.65802 19.1783 5.59997L19.267 5.69007C19.339 5.95776 19.2329 6.22882 19.1656 6.4903C19.1388 6.74321 19.21 6.98704 19.2611 7.23293C19.3619 7.71998 20.1657 8.61045 20.5895 8.88842C20.8432 9.0549 21.1526 9.15963 21.363 9.38583C21.6748 9.72031 21.9285 10.2516 22.1258 10.6642C22.6685 11.7962 23.7922 14.536 23.3407 15.7349C23.2681 15.9275 23.1395 16.0703 22.9524 16.1513C22.2685 16.4476 21.4945 15.9075 20.872 15.6912C20.7453 15.647 20.5047 15.8144 20.3995 15.88C19.3868 16.512 17.6585 16.3647 16.9196 17.0173L16.8596 17.0709C16.0866 16.2803 14.6628 16.541 13.6929 16.0451C13.4927 15.9426 13.3066 15.7709 13.1327 15.6278C12.7518 15.7306 12.4152 15.9404 12.0319 16.0474L11.9237 16.077C11.5394 16.1845 11.1341 16.1634 10.7386 16.1661C10.4307 15.737 10.3957 15.3285 10.4322 14.813C10.5325 13.3823 11.5506 10.3916 12.5404 9.36029C12.8785 9.00817 13.369 8.83838 13.7304 8.50716C14.2195 8.05856 14.7276 7.2569 14.7095 6.56681C14.7012 6.24226 14.6141 5.94982 14.6326 5.61823C14.6335 5.5974 14.635 5.5766 14.6365 5.55579C14.7417 5.60367 14.8157 5.64331 14.8985 5.72768C15.1572 5.99057 15.2225 6.46249 15.2239 6.81452C15.2307 8.51185 14.3369 9.16704 13.2604 10.2615C12.4269 11.1088 11.6777 12.9201 11.7026 14.1244C11.7065 14.3225 11.7221 14.4945 11.8687 14.6368C12.4688 14.7067 13.0275 13.5644 13.4786 13.2228C13.9068 12.8989 14.4207 12.7751 14.9292 12.6521C15.0987 12.3213 15.3944 11.9637 15.3944 11.5822C15.3944 11.4578 15.3934 11.3727 15.4324 11.2515C15.5878 11.3035 15.7617 11.3765 15.9224 11.4026C16.4548 11.4891 16.9083 11.1702 17.4564 11.4088C17.9147 11.6084 18.0706 11.3715 18.4973 11.251C18.5455 11.4542 18.377 11.5615 18.4023 11.7378C18.4471 12.0537 18.7043 12.4165 18.7818 12.7654Z" fill="#302D2D"/>
<path d="M20.6386 16.412C22.3727 16.48 24.0936 16.4503 25.8278 16.4495L33.7297 16.4509C33.5904 16.8305 33.3468 17.6013 32.9338 17.7398C32.8222 17.7773 32.6844 17.7631 32.5694 17.7479L32.53 17.8114L32.583 17.9C32.6381 17.9918 32.6819 18.0842 32.7233 18.1831C32.5986 18.5637 31.942 19.1517 31.6132 19.3692C31.4554 19.3803 31.4344 19.3744 31.3053 19.2642C31.2289 19.1989 31.1607 19.1109 31.0939 19.0351L31.0043 19.0353L30.9527 19.1409C31.0501 19.3336 31.1042 19.3959 31.0881 19.6161C30.7729 20.1347 29.8396 20.4278 29.2887 20.6359C29.1796 20.397 29.0422 19.9854 28.787 19.8857L28.6676 19.9381C28.615 20.0802 28.6267 20.1245 28.692 20.2614C28.7699 20.4248 28.8425 20.4788 28.8396 20.6659C28.6413 20.9121 28.0665 20.921 27.7684 20.9506C27.3914 20.9881 27.0217 21.0045 26.6427 20.9943L26.6062 20.9372C26.4279 20.6514 26.3285 20.2817 26.1064 20.0361L25.9739 20.006C25.8205 20.3251 26.0275 20.7794 26.1308 21.095C25.3114 21.0942 24.4838 21.1187 23.6655 21.0877C23.5719 20.7527 23.5033 20.3944 23.2962 20.1106C23.1228 20.3679 23.2704 20.6839 23.1823 20.948C23.1204 21.1321 22.8476 21.0809 22.8744 21.1969C22.9197 21.3976 23.1253 21.6029 23.249 21.7678C23.7785 22.4754 23.9042 23.2977 23.4775 24.0992C22.813 25.3471 21.2971 26.203 20.0954 26.8206C19.6117 27.0694 19.0184 27.2804 18.6662 27.7224C18.4709 27.9671 18.6019 28.3302 18.4295 28.5905C18.3452 28.5833 18.3145 28.6013 18.2541 28.5292C18.0286 28.2604 18.128 27.5641 18.1309 27.2091C18.3735 26.9171 18.6185 26.6422 18.9244 26.4167C19.9191 25.6832 22.0361 24.8958 22.4628 23.6331C22.5427 23.397 22.5174 23.1009 22.5135 22.8535C22.3581 22.5481 22.1549 22.1593 21.8106 22.0432C21.6591 21.9921 21.5266 21.9926 21.3843 22.0732C20.9946 22.2937 20.7506 23.0207 20.5002 23.3903C19.5664 24.7692 17.8664 25.6041 16.2229 25.2894C15.0436 25.0637 14.0114 24.3052 13.3304 23.3106C13.1068 22.9847 12.8511 22.1948 12.5476 22.0121C12.2753 22.031 12.0951 22.1863 11.9183 22.3875C11.6918 22.6453 11.5729 22.9047 11.6036 23.253C11.6543 23.8267 11.9952 24.2808 12.4258 24.6289C12.8443 24.9668 13.3075 25.2703 13.7639 25.5509C14.4883 25.9957 15.9964 26.6329 16.0875 27.6207C16.1177 27.9461 16.0465 28.3063 15.8376 28.5574L15.688 28.6021C15.4187 28.415 15.4927 27.7138 15.1683 27.424C14.7294 27.0317 13.6504 26.6439 13.0888 26.3351C12.2719 25.8863 10.5592 24.4591 10.4004 23.4846C10.2143 22.3413 11.1637 21.5921 11.134 21.1979C11.058 21.1448 10.9854 21.0925 10.9041 21.0478C10.774 21.0129 10.6605 21.0211 10.5271 21.0256C10.0882 21.2244 8.56303 21.0913 8.00724 21.095C7.99019 20.7914 7.98727 20.4846 7.91274 20.1891C7.78414 20.4311 7.65165 20.8714 7.3774 20.9613C6.90783 21.1155 5.89707 20.9774 5.41288 20.8467C5.35102 20.7864 5.29499 20.7621 5.28574 20.6691C5.25115 20.3059 5.61162 20.0101 5.63451 19.66C5.5405 19.6148 5.5668 19.6046 5.47474 19.6386C5.1474 19.7593 4.96035 20.327 4.81422 20.6338C4.07283 20.4544 3.31196 20.1922 2.6831 19.7406C2.8721 19.5205 3.24279 19.1463 3.2993 18.8653L3.25741 18.8108C2.87161 18.9001 2.8229 19.5849 2.3353 19.5396C1.69182 18.9619 0.337654 17.516 0.18811 16.6402L0.230001 16.4862C0.619691 16.3456 2.08492 16.4506 2.56375 16.4506L9.32147 16.4521C10.5514 16.452 11.8364 16.5281 13.0576 16.4025L13.1307 16.4463C13.4658 16.6462 13.82 16.7833 14.1975 16.8772C14.7947 17.0258 16.2813 17.0337 16.484 17.7682C16.6374 18.3231 16.5775 18.9878 16.6058 19.5622C16.6739 20.9257 16.7037 22.3005 16.7933 23.6612C17.3457 21.7992 16.8795 18.7788 17.4299 17.4859C18.2863 16.8165 19.6731 17.2349 20.5304 16.5041C20.5528 16.4851 20.5757 16.4669 20.5981 16.4479C20.6118 16.4362 20.6249 16.424 20.6386 16.412Z" fill="#302D2D"/>
</g>
</svg>
